<?xml version="1.0" encoding="UTF-8"?>
<svg id="Calque_2" data-name="Calque 2" xmlns="http://www.w3.org/2000/svg" viewBox="0 0 694.8 406.16">
  <defs>
    <style>
      .cls-1 {
        fill: #dc1d27;
      }
    </style>
  </defs>
  <g id="Calque_2_-_copie" data-name="Calque 2 - copie">
    <g>
      <path class="cls-1" d="M81.18,216.52c12.02,0,22.83-1.18,32.41-3.52,9.58-2.35,17.94-5.68,25.09-10.01l.28-56.65c-6.95,3.57-14.8,6.39-23.54,8.46-8.74,2.07-17.15,3.1-25.23,3.1s-14.14-1.78-18.18-5.36c-4.04-3.57-6.72-8.83-8.03-15.78-1.32-6.95-1.97-16.72-1.97-29.31,0-16.91,1.17-29.12,3.52-36.64,2.35-7.51,5.4-11.27,9.16-11.27,3.19,0,5.45,1.18,6.77,3.52,1.31,2.35,1.97,5.97,1.97,10.85,0,3.76-.19,8.41-.56,13.95-.38,5.55-.94,10.38-1.69,14.52l57.22-2.82c2.44-10.71,3.66-23.2,3.66-37.49,0-22.55-5.54-38.52-16.63-47.92C114.34,4.75,97.9.05,76.1.05,51.67.05,32.88,9.45,19.73,28.24,6.57,47.03,0,73.34,0,107.16s5.82,58.39,17.47,78.78c11.65,20.39,32.88,30.58,63.7,30.58Z"/>
      <path class="cls-1" d="M190.25,207.93c9.96,5.73,24.42,8.6,43.41,8.6,15.6,0,28.89-2.73,39.88-8.17,10.99-5.45,19.54-14.52,25.65-27.2,6.1-12.68,9.16-29.45,9.16-50.31V49.1c0-19.73.56-34.95,1.69-45.66h-59.47c.94,13.34,1.5,28.56,1.69,45.66v81.46c0,7.14-.38,12.54-1.13,16.21-.75,3.66-1.97,6.2-3.66,7.61-1.69,1.41-4.32,2.11-7.89,2.11-3.38,0-5.97-.7-7.75-2.11-1.79-1.41-3.06-3.95-3.8-7.61-.75-3.66-1.13-9.06-1.13-16.21V49.1c0-19.73.56-34.95,1.69-45.66h-65.39c.94,13.34,1.5,28.56,1.69,45.66v82.87c0,21.24,1.74,37.77,5.21,49.61,3.47,11.84,10.19,20.62,20.15,26.35Z"/>
      <path class="cls-1" d="M400.8,213.14c-.94-10.71-1.41-25.93-1.41-45.66V49.1c0-19.73.47-34.95,1.41-45.66h-65.11c.94,13.34,1.41,28.56,1.41,45.66v118.38c0,19.73-.47,34.95-1.41,45.66h65.11Z"/>
      <path class="cls-1" d="M489.17,154.37c-1.6,1.22-4.47,1.83-8.6,1.83-6.76,0-15.93-.99-27.48-2.96-11.56-1.97-21.38-4.65-29.45-8.03l-2.25,67.08c7.89,1.31,18.32,2.4,31.29,3.24,12.97.85,23.86,1.17,32.7.99,15.4-.19,27.76-2.58,37.06-7.19,9.3-4.6,16.07-11.98,20.29-22.13,4.23-10.15,6.34-23.96,6.34-41.43,0-13.53-1.32-24.1-3.95-31.71-2.63-7.61-6.81-13.48-12.54-17.62-5.73-4.13-14.14-7.7-25.23-10.71l-14.09-4.23c-2.44-.56-4.28-1.55-5.5-2.96-1.22-1.41-1.83-3.52-1.83-6.34s.7-4.93,2.11-6.34c1.41-1.41,3.43-2.11,6.06-2.11,9.39,0,26.12,2.07,50.17,6.2l2.25-65.96c-12.03-1.31-22.5-2.35-31.43-3.1-8.93-.75-17.33-1.03-25.23-.85-16.73.19-29.92,2.3-39.6,6.34-9.68,4.04-16.82,10.71-21.42,20.01-4.61,9.3-6.9,22.13-6.9,38.47s1.22,27.9,3.66,36.92c2.44,9.02,6.62,15.93,12.54,20.72,5.92,4.79,14.23,8.5,24.94,11.13l20.29,5.07c3.38.75,5.59,1.88,6.62,3.38,1.03,1.51,1.55,3.66,1.55,6.48,0,2.63-.8,4.56-2.4,5.78Z"/>
      <path class="cls-1" d="M620.66,133.34l-.07-.25-.02-.18c-.04-.23-.09-.45-.16-.65-.44-1.23-1.71-2.44-4.01-3.83-17.65-10.66-28.62-29.09-28.62-48.11,0-3.36.34-6.74,1.02-10.04,1.76-8.61,3.96-17.64,7.14-29.28,1.37-5.03,2.81-10.14,4.2-15.09,1.77-6.31,3.61-12.84,5.34-19.32l.84-3.16h-37.53c.94,13.34,1.41,28.56,1.41,45.66v118.38c0,19.73-.47,34.95-1.41,45.66h55.52c-.04-24.99-.97-49.95-2.78-74.19-.13-1.8-.43-3.69-.87-5.61Z"/>
      <path class="cls-1" d="M153.94,230.19h-60.87c.9,9,1.71,21.57,2.43,37.7l.71,36.12-41.56-73.58-52.76-.23H0c.9,11.02,1.44,23.58,1.62,37.7v97.74c-.18,16.29-.72,28.86-1.62,37.7h60.6c-.9-9-1.72-21.56-2.43-37.7l-.65-41.84,41.78,79.54h54.65c-1.08-8.84-1.62-21.41-1.62-37.7v-97.74c0-16.29.54-28.86,1.62-37.7Z"/>
      <path class="cls-1" d="M295.04,237.17c-11.09-6.52-25.75-9.77-43.96-9.77s-32.87,3.26-43.96,9.77c-11.09,6.52-19.12,16.29-24.08,29.32-4.96,13.03-7.44,29.71-7.44,50.03s2.48,37.27,7.44,50.38c4.96,13.11,12.99,22.92,24.08,29.44,11.09,6.52,25.74,9.77,43.96,9.77s32.87-3.26,43.96-9.77,19.12-16.33,24.08-29.44c4.96-13.11,7.44-29.9,7.44-50.38s-2.48-37-7.44-50.03c-4.96-13.03-12.99-22.81-24.08-29.32ZM265,343.4c-.81,6.28-2.3,10.86-4.46,13.73-2.16,2.87-5.32,4.31-9.47,4.31s-7.58-1.43-9.74-4.31c-2.16-2.87-3.65-7.45-4.46-13.73-.81-6.28-1.22-15.24-1.22-26.88s.41-20.32,1.22-26.53c.81-6.2,2.3-10.74,4.46-13.61,2.16-2.87,5.41-4.31,9.74-4.31s7.3,1.44,9.47,4.31c2.16,2.87,3.65,7.41,4.46,13.61.81,6.21,1.22,15.05,1.22,26.53s-.41,20.6-1.22,26.88Z"/>
      <path class="cls-1" d="M435.05,230.19h-1.89c.9,11.02,1.44,23.58,1.62,37.7v67.25c0,5.9-.36,10.36-1.08,13.38-.72,3.03-1.89,5.12-3.52,6.28s-4.15,1.75-7.58,1.75c-3.25,0-5.73-.58-7.44-1.75-1.72-1.16-2.93-3.26-3.65-6.28-.72-3.03-1.08-7.48-1.08-13.38v-67.25c0-16.29.54-28.86,1.62-37.7h-62.77c.9,11.02,1.44,23.58,1.62,37.7v68.42c0,17.53,1.67,31.18,5.01,40.96,3.34,9.77,9.78,17.03,19.34,21.76,9.56,4.73,23.44,7.1,41.66,7.1,14.97,0,27.73-2.25,38.28-6.75,10.55-4.5,18.76-11.98,24.62-22.46,5.86-10.47,8.79-24.32,8.79-41.54v-67.49c0-16.29.54-28.86,1.62-37.7h-55.19Z"/>
      <path class="cls-1" d="M577.08,227.4c-16.05.16-28.72,1.9-38.01,5.24-9.29,3.34-16.14,8.84-20.56,16.52-4.42,7.68-6.63,18.27-6.63,31.77s1.17,23.04,3.52,30.49c2.34,7.45,6.36,13.15,12.04,17.1,5.68,3.95,13.66,7.02,23.94,9.19l19.48,4.19c3.25.62,5.37,1.56,6.36,2.79.99,1.25,1.49,3.03,1.49,5.35,0,2.18-.77,3.76-2.3,4.77-1.54,1.01-4.29,1.51-8.26,1.51-6.49,0-15.29-.81-26.38-2.44-11.1-1.63-20.52-3.84-28.27-6.63l-2.17,55.38c7.58,1.09,17.59,1.98,30.03,2.68,12.44.7,22.9.96,31.39.81,14.79-.16,26.65-2.13,35.58-5.94,4.18-1.78,7.83-4.06,10.94-6.84-.89-1.93-1.56-4.05-2.01-6.36-1.22-6.2-2.48-13.51-2.48-20.72,0-2.29.12-4.52.38-6.6,2.1-17.16,3.85-34.2,5.23-51.08-.74-.57-1.52-1.1-2.32-1.6-5.5-3.41-13.57-6.36-24.21-8.84l-13.53-3.49c-2.35-.46-4.11-1.28-5.28-2.44-1.18-1.16-1.76-2.91-1.76-5.24s.68-4.07,2.03-5.24c1.36-1.16,3.29-1.74,5.82-1.74,8.05,0,21.72,1.36,41,4.08,1.13-18.29,1.82-36.34,2.07-54.09-8.55-.77-16.19-1.4-22.91-1.89-8.57-.62-16.64-.86-24.22-.7Z"/>
      <path class="cls-1" d="M692.27,58.35c-1.65-4.84-3.17-9.74-4.63-14.66-3.9-13.22-7.28-26.63-11.03-39.84-.76-.04-1.47-.04-2.11.02-1.19.09-2.19.32-3.01.7-2.73,1.24-3.54,4.08-2.99,8.54,1.63,13.08,2.86,26.22,4.27,39.34.18,1.66.18,3.23.01,4.68-.66,5.91-4.04,9.88-9.21,10.35-1.31.11-2.52,0-3.62-.33-4.31-1.31-6.92-5.94-7.2-13.12-.06-1.55-.12-3.1-.19-4.65-.53-12.51-1.17-25.02-1.35-37.54,0-.62-.04-1.21-.09-1.78-.44-4.81-5.56-5.97-8.24-3.55-.9.81-1.53,2.03-1.62,3.64,0,.03,0,.05,0,.08-.43,8.9-.73,17.81-1.09,26.71-.21,5.45-.45,10.89-.75,16.33-.2,3.49-.75,8.01-2.86,10.08-1.07,1.06-2.51,1.97-4.07,2.62-2.08.89-4.37,1.31-6.29,1.06-2.46-.33-5.56-4.27-6.37-7.23-.29-1.08-.44-2.21-.49-3.37-.14-2.91.32-6.01.58-8.96,1.05-11.77,2.2-23.54,3.38-35.62.35-3.62-1.75-6.93-4.9-8.02-.37-.12-.75-.22-1.15-.29-.23-.04-.46-.07-.7-.11-.46-.07-.92-.15-1.41-.23-.02.08-.04.15-.06.23-3.07,11.51-6.39,22.86-9.49,34.2-2.63,9.64-5.09,19.29-7.07,29.03-4.3,21.06,6.58,42.43,25.91,54.1,2.95,1.78,4.77,3.54,5.55,5.75.15.44.27.9.34,1.38.01.05.02.08.03.13.49,2.09.82,4.17.97,6.22.45,5.99.83,11.98,1.17,17.97,3.13,55.65,1.62,111.21-3.58,166.66-1.15,12.29-2.48,24.58-3.99,36.86-1.03,8.48.37,17.57,2.05,26.07.08.42.17.83.27,1.22,2.25,9.3,8.61,14.61,18.3,14.96,6.82.25,12.5-1.87,16.11-6.47,1.68-2.13,2.91-4.78,3.61-7.98,2.11-9.68,3.54-20.19,2.3-29.92-8.75-68.82-9.27-137.86-7.45-207.12.16-6.06.72-11.8,1.84-17.24.2-.98.43-1.96.67-2.92.84-2.26,2.68-4.13,5.65-5.98,7.52-4.68,14.11-11.49,18.85-19.53,7.3-12.39,10.16-27.68,5.13-42.5Z"/>
    </g>
  </g>
</svg>