<svg width="149" height="24" viewBox="0 0 149 24" fill="none" xmlns="http://www.w3.org/2000/svg">
<g clip-path="url(#clip0_294_1791)">
<path d="M9.15947 23.9941C5.68163 23.9941 3.28656 22.8652 1.97158 20.6056C0.656599 18.346 0 15.4364 0 11.8757C0 8.12722 0.742011 5.2123 2.22603 3.1301C3.71005 1.04789 5.83021 0.00634766 8.58739 0.00634766C11.0465 0.00634766 12.9016 0.527118 14.1534 1.56779C15.4043 2.60933 16.0297 4.37872 16.0297 6.87772C16.0297 8.46013 15.8918 9.84506 15.616 11.0317L9.15947 11.3436C9.24399 10.8857 9.30805 10.3492 9.35076 9.73497C9.39257 9.1207 9.41393 8.60605 9.41393 8.18926C9.41393 7.64839 9.33919 7.24733 9.1915 6.98694C9.04292 6.72656 8.78847 6.59636 8.42814 6.59636C8.00375 6.59636 7.65944 7.01316 7.39431 7.84586C7.12917 8.67857 6.99661 10.0321 6.99661 11.9063C6.99661 13.3017 7.07045 14.3843 7.21903 15.155C7.36672 15.9257 7.66922 16.5085 8.12564 16.9043C8.58117 17.3001 9.26535 17.4976 10.1773 17.4976C11.0892 17.4976 12.0377 17.3831 13.0234 17.1542C14.0092 16.9253 14.8945 16.6133 15.6792 16.2175L15.6472 22.4956C14.8411 22.9744 13.898 23.344 12.817 23.6044C11.736 23.8648 10.5163 23.995 9.15947 23.995V23.9941Z" fill="#DC1D27"/>
<path d="M18.6054 5.4409C18.5841 3.54655 18.52 1.85929 18.415 0.380859H25.7933C25.6661 1.56745 25.6029 3.25471 25.6029 5.4409V14.4679C25.6029 15.2595 25.6448 15.8581 25.7302 16.2635C25.8147 16.6698 25.9579 16.9503 26.1599 17.1067C26.361 17.2631 26.6528 17.3408 27.0345 17.3408C27.4366 17.3408 27.7338 17.2631 27.9251 17.1067C28.1154 16.9503 28.2534 16.6698 28.3388 16.2635C28.4233 15.8572 28.466 15.2586 28.466 14.4679V5.4409C28.4446 3.54655 28.3806 1.85929 28.2756 0.380859H34.9857C34.8585 1.56745 34.7953 3.25471 34.7953 5.4409V14.4993C34.7953 16.8105 34.4501 18.669 33.7615 20.0749C33.072 21.4808 32.1075 22.4856 30.8673 23.0894C29.6271 23.6932 28.127 23.9955 26.3672 23.9955C24.2257 23.9955 22.5931 23.6775 21.4694 23.0431C20.3457 22.4079 19.5877 21.4345 19.1953 20.1229C18.8029 18.8114 18.6072 16.9791 18.6072 14.626V5.4409H18.6054Z" fill="#DC1D27"/>
<path d="M38.0686 23.6189H37.8782C37.984 22.4323 38.0374 20.7451 38.0374 18.5589V5.44089C38.0374 3.54655 37.984 1.85929 37.8782 0.380859H45.2244C45.1177 1.56745 45.0652 3.25471 45.0652 5.44089V18.5598C45.0652 20.746 45.1177 22.4332 45.2244 23.6198H38.0686V23.6189Z" fill="#DC1D27"/>
<path d="M47.8009 16.0914C48.712 16.4663 49.8205 16.7633 51.1239 16.9818C52.4282 17.2002 53.4612 17.3094 54.2245 17.3094C54.6907 17.3094 55.0146 17.2422 55.1943 17.1067C55.374 16.9713 55.4648 16.7581 55.4648 16.4663C55.4648 16.1543 55.4061 15.9149 55.2895 15.748C55.173 15.582 54.9238 15.457 54.5422 15.3732L52.2521 14.8113C51.0439 14.5204 50.1052 14.1088 49.4371 13.5776C48.7689 13.0463 48.2973 12.2817 48.0215 11.2821C47.7457 10.2825 47.6078 8.91945 47.6078 7.19025C47.6078 5.46105 47.8676 3.95728 48.3872 2.9271C48.9068 1.89604 49.712 1.1577 50.8045 0.709456C51.8962 0.262083 53.3855 0.0279107 55.2726 0.00694009C56.1632 -0.0131568 57.1116 0.0174254 58.1188 0.100434C59.1259 0.184317 60.3074 0.298781 61.6651 0.443828L61.4107 7.75296C58.6962 7.2951 56.81 7.06617 55.7495 7.06617C55.4523 7.06617 55.2246 7.14394 55.0653 7.30035C54.906 7.45675 54.8269 7.69092 54.8269 8.00286C54.8269 8.3148 54.8954 8.54985 55.0333 8.70538C55.1712 8.86178 55.3776 8.97101 55.6534 9.03304L57.2433 9.50139C58.4942 9.8343 59.4426 10.2301 60.0894 10.688C60.7363 11.1458 61.2078 11.7968 61.505 12.64C61.8012 13.4832 61.9498 14.6549 61.9498 16.1534C61.9498 18.0897 61.7114 19.6206 61.2345 20.7451C60.7576 21.8697 59.9942 22.6867 58.9444 23.197C57.8946 23.7072 56.5004 23.9729 54.7619 23.9938C53.7655 24.0139 52.5359 23.9781 51.0723 23.8846C49.6097 23.7911 48.4326 23.6705 47.542 23.5255L47.7964 16.0914H47.8009Z" fill="#DC1D27"/>
<path d="M64.3708 23.6189H64.1804C64.2863 22.4323 64.3397 20.7451 64.3397 18.5589V5.44089C64.3397 3.54655 64.2863 1.85929 64.1804 0.380859H71.5267C71.4199 1.56745 71.3674 3.25471 71.3674 5.44089V18.5598C71.3674 20.746 71.4199 22.4332 71.5267 23.6198H64.3708V23.6189Z" fill="#DC1D27"/>
<path d="M85.7111 5.44089C85.6257 3.27568 85.5305 1.58842 85.4246 0.380859H92.5805C92.4533 1.56745 92.3901 3.25471 92.3901 5.44089V18.5598C92.3901 20.746 92.4533 22.4332 92.5805 23.6198H86.156L80.0499 10.3454L81.195 9.2523L81.3222 18.5598C81.4067 20.7259 81.5019 22.4122 81.6087 23.6198H74.4849C74.5907 22.4332 74.6539 20.746 74.6753 18.5598V5.44089C74.6539 3.54655 74.5898 1.85929 74.4849 0.380859H74.7073L80.9094 0.412315L87.4612 13.6553L85.8713 14.6863L85.712 5.44089H85.7111Z" fill="#DC1D27"/>
<path d="M103.998 23.9937C101.856 23.9937 100.134 23.5568 98.8297 22.6822C97.5254 21.8075 96.5823 20.4908 95.9996 18.731C95.4159 16.9712 95.125 14.7177 95.125 11.9688C95.125 9.21993 95.4159 7.00229 95.9996 5.25386C96.5823 3.50456 97.5263 2.19302 98.8297 1.31837C100.134 0.443724 101.856 0.00683594 103.998 0.00683594C106.139 0.00683594 107.862 0.443724 109.166 1.31837C110.471 2.19302 111.414 3.50456 111.996 5.25386C112.579 7.00316 112.871 9.24177 112.871 11.9688C112.871 14.6959 112.579 16.9721 111.996 18.731C111.413 20.4908 110.47 21.8075 109.166 22.6822C107.862 23.5568 106.139 23.9937 103.998 23.9937ZM103.998 17.997C104.486 17.997 104.857 17.8048 105.111 17.4194C105.365 17.0341 105.541 16.4198 105.636 15.5766C105.731 14.7335 105.779 13.5311 105.779 11.9688C105.779 10.4065 105.731 9.2409 105.636 8.40819C105.541 7.57548 105.365 6.96646 105.111 6.58112C104.857 6.19579 104.486 6.00356 103.998 6.00356C103.51 6.00356 103.107 6.19666 102.853 6.58112C102.598 6.96646 102.423 7.57548 102.328 8.40819C102.233 9.2409 102.185 10.4284 102.185 11.9688C102.185 13.5093 102.233 14.7335 102.328 15.5766C102.423 16.4198 102.598 17.0341 102.853 17.4194C103.107 17.8048 103.489 17.997 103.998 17.997Z" fill="#DC1D27"/>
<path d="M115.733 5.4409C115.712 3.54655 115.648 1.85929 115.543 0.380859H122.921C122.794 1.56745 122.731 3.25471 122.731 5.4409V14.4679C122.731 15.2595 122.772 15.8581 122.858 16.2635C122.942 16.6698 123.086 16.9503 123.288 17.1067C123.489 17.2631 123.78 17.3408 124.162 17.3408C124.564 17.3408 124.861 17.2631 125.053 17.1067C125.243 16.9503 125.381 16.6698 125.466 16.2635C125.551 15.8572 125.594 15.2586 125.594 14.4679V5.4409C125.572 3.54655 125.508 1.85929 125.402 0.380859H132.113C131.986 1.56745 131.922 3.25471 131.922 5.4409V14.4993C131.922 16.8105 131.577 18.669 130.888 20.0749C130.199 21.4808 129.234 22.4856 127.994 23.0894C126.754 23.6932 125.254 23.9955 123.494 23.9955C121.352 23.9955 119.72 23.6775 118.596 23.0431C117.472 22.4079 116.714 21.4345 116.322 20.1229C115.93 18.8114 115.734 16.9791 115.734 14.626V5.4409H115.733Z" fill="#DC1D27"/>
<path d="M134.848 16.0914C135.759 16.4663 136.867 16.7633 138.172 16.9818C139.476 17.2002 140.509 17.3094 141.272 17.3094C141.738 17.3094 142.062 17.2422 142.242 17.1067C142.422 16.9713 142.512 16.7581 142.512 16.4663C142.512 16.1543 142.454 15.9149 142.337 15.748C142.221 15.582 141.971 15.457 141.59 15.3732L139.3 14.8113C138.091 14.5204 137.153 14.1088 136.485 13.5776C135.817 13.0463 135.345 12.2817 135.069 11.2821C134.793 10.2825 134.655 8.91945 134.655 7.19025C134.655 5.46105 134.915 3.95728 135.435 2.9271C135.954 1.89604 136.76 1.1577 137.852 0.709456C138.944 0.262083 140.433 0.0279107 142.32 0.00694009C143.211 -0.0131568 144.159 0.0174254 145.166 0.100434C146.174 0.184317 147.355 0.298781 148.713 0.443828L148.458 7.75296C145.744 7.2951 143.858 7.06617 142.797 7.06617C142.5 7.06617 142.272 7.14394 142.113 7.30035C141.954 7.45675 141.874 7.69092 141.874 8.00286C141.874 8.3148 141.943 8.54985 142.081 8.70538C142.219 8.86178 142.425 8.97101 142.701 9.03304L144.291 9.50139C145.542 9.8343 146.49 10.2301 147.137 10.688C147.784 11.1458 148.255 11.7968 148.553 12.64C148.849 13.4832 148.997 14.6549 148.997 16.1534C148.997 18.0897 148.759 19.6206 148.282 20.7451C147.805 21.8697 147.042 22.6867 145.992 23.197C144.942 23.7072 143.548 23.9729 141.81 23.9938C140.813 24.0139 139.583 23.9781 138.12 23.8846C136.657 23.7911 135.48 23.6705 134.59 23.5255L134.844 16.0914H134.848Z" fill="#DC1D27"/>
</g>
<defs>
<clipPath id="clip0_294_1791">
<rect width="149" height="24" fill="white"/>
</clipPath>
</defs>
</svg>
